<?xml version="1.0" standalone="no"?>
<!DOCTYPE svg PUBLIC "-//W3C//DTD SVG 20010904//EN"
 "http://www.w3.org/TR/2001/REC-SVG-20010904/DTD/svg10.dtd">
<svg version="1.0" xmlns="http://www.w3.org/2000/svg"
 width="513.000000pt" height="499.000000pt" viewBox="0 0 513.000000 499.000000"
 preserveAspectRatio="xMidYMid meet">

<g transform="translate(0.000000,499.000000) scale(0.100000,-0.100000)"
fill="#000000" stroke="none">
<path d="M3874 4956 c-334 -64 -609 -269 -762 -569 -35 -68 -79 -192 -97 -270
-5 -24 -10 -28 -28 -23 -12 3 -109 10 -215 16 -208 12 -504 2 -702 -24 -248
-33 -278 -45 -300 -111 -10 -30 -9 -41 7 -72 32 -67 48 -70 229 -45 268 37
401 45 659 38 132 -4 260 -10 285 -14 l45 -7 6 -65 c3 -36 9 -85 14 -109 7
-42 7 -44 -16 -38 -66 16 -352 29 -529 24 -699 -21 -1325 -221 -1900 -607
-190 -128 -516 -404 -547 -463 -35 -68 -28 -77 279 -384 183 -183 294 -287
314 -293 46 -15 76 0 167 86 186 175 380 309 617 428 256 128 511 209 795 252
170 27 580 27 750 0 279 -43 537 -124 784 -247 238 -117 454 -267 636 -440 83
-79 114 -94 159 -79 20 6 131 110 314 293 242 242 283 288 288 318 4 22 1 46
-7 62 -19 36 -206 207 -343 313 -64 49 -115 91 -115 94 0 3 25 23 56 45 31 22
85 72 121 110 278 300 363 711 227 1093 -118 329 -397 582 -743 673 -100 27
-344 35 -448 15z m431 -236 c220 -69 418 -237 518 -435 73 -147 104 -348 77
-512 -55 -347 -325 -629 -669 -698 -101 -21 -294 -16 -386 9 -147 40 -327 152
-417 259 -99 117 -152 217 -190 359 -29 112 -30 298 0 409 56 210 177 381 352
498 91 61 155 89 275 122 100 27 339 22 440 -11z m-1311 -1274 c60 -8 110 -17
111 -18 1 -2 17 -29 35 -61 130 -231 373 -418 643 -493 71 -20 124 -27 233
-31 151 -6 228 3 352 39 l72 21 58 -39 c114 -78 362 -284 362 -301 0 -16 -363
-362 -374 -356 -6 4 -40 32 -76 64 -616 538 -1484 778 -2315 638 -499 -83
-993 -314 -1365 -639 -36 -31 -70 -59 -76 -63 -11 -6 -374 340 -374 356 0 10
93 94 184 167 499 401 1095 650 1716 720 52 5 111 12 130 14 85 10 581 -3 684
-18z"/>
<path d="M3932 4559 c-106 -21 -204 -99 -252 -202 -40 -85 -47 -157 -25 -252
l18 -76 -30 -32 c-62 -65 -68 -86 -71 -271 -3 -116 0 -183 9 -215 17 -60 98
-145 154 -160 25 -7 153 -11 335 -11 289 0 296 1 345 24 54 25 100 71 122 123
9 23 13 85 13 220 l0 188 -30 52 c-62 108 -111 123 -406 123 l-222 0 -18 73
c-16 72 -16 74 4 120 17 38 30 52 64 67 58 26 76 25 143 -10 67 -35 98 -37
142 -10 45 27 62 84 38 133 -21 45 -94 92 -173 112 -61 16 -95 17 -160 4z
m398 -854 l0 -145 -267 2 -268 3 -3 129 c-1 72 0 136 2 143 4 10 62 13 271 13
l265 0 0 -145z"/>
<path d="M1495 3958 c-76 -68 -29 -188 74 -188 45 0 101 55 101 99 0 39 -24
87 -49 101 -35 18 -98 12 -126 -12z"/>
<path d="M2375 2444 c-16 -2 -70 -9 -120 -15 -336 -40 -687 -173 -985 -372
-109 -73 -246 -185 -317 -260 -57 -59 -63 -69 -63 -108 l0 -44 293 -292 c290
-291 293 -293 334 -293 37 0 50 7 105 57 217 195 462 315 728 358 120 19 318
19 435 0 273 -44 515 -162 733 -358 55 -50 68 -57 105 -57 41 0 44 2 334 293
l293 292 0 44 c0 39 -6 49 -62 108 -72 75 -209 187 -318 260 -284 190 -600
314 -945 368 -95 15 -481 29 -550 19z m571 -243 c332 -63 623 -189 888 -385
42 -31 95 -73 117 -93 l39 -36 -186 -184 -186 -183 -61 49 c-194 153 -418 257
-677 312 -90 20 -135 23 -310 23 -175 0 -220 -3 -310 -23 -259 -55 -483 -159
-677 -313 l-62 -49 -186 184 -185 184 40 36 c22 20 74 62 116 93 266 197 569
328 889 384 161 28 160 28 410 25 183 -2 252 -7 341 -24z"/>
<path d="M2350 1191 c-211 -47 -376 -131 -517 -264 -65 -62 -68 -67 -68 -111
l0 -46 380 -380 381 -380 44 0 44 0 381 380 380 380 0 46 c0 45 -3 49 -73 115
-125 117 -281 201 -462 249 -121 32 -369 38 -490 11z m410 -216 c114 -27 217
-71 307 -132 l42 -29 -269 -269 c-148 -148 -271 -267 -274 -265 -3 3 -124 124
-270 269 l-266 265 43 28 c89 61 174 98 292 129 91 23 303 25 395 4z"/>
</g>
</svg>
